<svg width="351" height="239" viewBox="0 0 351 239" fill="none" xmlns="http://www.w3.org/2000/svg">
<path d="M27.5745 200.546H11.6982L8.66948 207.873H0.560348L15.8016 173.678H23.6176L38.9078 207.873H30.6032L27.5745 200.546ZM25.0831 194.537L19.6608 181.445L14.2384 194.537H25.0831ZM58.3433 208.46C54.8586 208.46 51.6996 207.711 48.8663 206.213C46.0656 204.682 43.851 202.581 42.2227 199.911C40.6269 197.208 39.829 194.163 39.829 190.776C39.829 187.389 40.6269 184.36 42.2227 181.69C43.851 178.987 46.0656 176.886 48.8663 175.388C51.6996 173.857 54.8749 173.092 58.3921 173.092C61.3557 173.092 64.0262 173.613 66.4035 174.655C68.8135 175.697 70.8326 177.195 72.461 179.149L67.3805 183.839C65.0683 181.169 62.2024 179.833 58.7829 179.833C56.6661 179.833 54.7772 180.306 53.1163 181.25C51.4554 182.162 50.1527 183.448 49.2083 185.109C48.2964 186.77 47.8405 188.659 47.8405 190.776C47.8405 192.893 48.2964 194.782 49.2083 196.442C50.1527 198.103 51.4554 199.406 53.1163 200.35C54.7772 201.262 56.6661 201.718 58.7829 201.718C62.2024 201.718 65.0683 200.367 67.3805 197.664L72.461 202.353C70.8326 204.34 68.8135 205.854 66.4035 206.896C63.9936 207.939 61.3068 208.46 58.3433 208.46ZM93.4543 208.46C89.9697 208.46 86.8107 207.711 83.9774 206.213C81.1767 204.682 78.9621 202.581 77.3338 199.911C75.738 197.208 74.9401 194.163 74.9401 190.776C74.9401 187.389 75.738 184.36 77.3338 181.69C78.9621 178.987 81.1767 176.886 83.9774 175.388C86.8107 173.857 89.986 173.092 93.5032 173.092C96.4668 173.092 99.1372 173.613 101.515 174.655C103.925 175.697 105.944 177.195 107.572 179.149L102.492 183.839C100.179 181.169 97.3135 179.833 93.894 179.833C91.7771 179.833 89.8883 180.306 88.2274 181.25C86.5665 182.162 85.2638 183.448 84.3194 185.109C83.4075 186.77 82.9515 188.659 82.9515 190.776C82.9515 192.893 83.4075 194.782 84.3194 196.442C85.2638 198.103 86.5665 199.406 88.2274 200.35C89.8883 201.262 91.7771 201.718 93.894 201.718C97.3135 201.718 100.179 200.367 102.492 197.664L107.572 202.353C105.944 204.34 103.925 205.854 101.515 206.896C99.1047 207.939 96.4179 208.46 93.4543 208.46ZM128.761 208.46C125.211 208.46 122.003 207.694 119.137 206.164C116.304 204.633 114.073 202.532 112.445 199.862C110.849 197.159 110.051 194.13 110.051 190.776C110.051 187.421 110.849 184.409 112.445 181.739C114.073 179.036 116.304 176.919 119.137 175.388C122.003 173.857 125.211 173.092 128.761 173.092C132.311 173.092 135.502 173.857 138.335 175.388C141.169 176.919 143.4 179.036 145.028 181.739C146.656 184.409 147.47 187.421 147.47 190.776C147.47 194.13 146.656 197.159 145.028 199.862C143.4 202.532 141.169 204.633 138.335 206.164C135.502 207.694 132.311 208.46 128.761 208.46ZM128.761 201.718C130.78 201.718 132.604 201.262 134.232 200.35C135.86 199.406 137.13 198.103 138.042 196.442C138.987 194.782 139.459 192.893 139.459 190.776C139.459 188.659 138.987 186.77 138.042 185.109C137.13 183.448 135.86 182.162 134.232 181.25C132.604 180.306 130.78 179.833 128.761 179.833C126.742 179.833 124.918 180.306 123.29 181.25C121.661 182.162 120.375 183.448 119.43 185.109C118.519 186.77 118.063 188.659 118.063 190.776C118.063 192.893 118.519 194.782 119.43 196.442C120.375 198.103 121.661 199.406 123.29 200.35C124.918 201.262 126.742 201.718 128.761 201.718ZM168.61 208.46C163.725 208.46 159.915 207.108 157.179 204.405C154.476 201.702 153.125 197.843 153.125 192.828V173.678H161.039V192.534C161.039 198.657 163.579 201.718 168.659 201.718C171.134 201.718 173.023 200.986 174.326 199.52C175.628 198.022 176.28 195.693 176.28 192.534V173.678H184.096V192.828C184.096 197.843 182.728 201.702 179.992 204.405C177.289 207.108 173.495 208.46 168.61 208.46ZM223.278 173.678V207.873H216.781L199.732 187.112V207.873H191.916V173.678H198.462L215.462 194.44V173.678H223.278ZM238.452 180.127H227.509V173.678H257.308V180.127H246.365V207.873H238.452V180.127ZM261.566 173.678H269.48V207.873H261.566V173.678ZM308.957 173.678V207.873H302.46L285.411 187.112V207.873H277.595V173.678H284.141L301.141 194.44V173.678H308.957ZM340.153 190.238H347.383V204.112C345.527 205.512 343.377 206.587 340.935 207.336C338.492 208.085 336.033 208.46 333.558 208.46C330.009 208.46 326.817 207.711 323.984 206.213C321.15 204.682 318.92 202.581 317.291 199.911C315.695 197.208 314.898 194.163 314.898 190.776C314.898 187.389 315.695 184.36 317.291 181.69C318.92 178.987 321.167 176.886 324.033 175.388C326.898 173.857 330.123 173.092 333.705 173.092C336.701 173.092 339.42 173.597 341.863 174.606C344.305 175.616 346.357 177.082 348.018 179.003L342.938 183.693C340.495 181.12 337.548 179.833 334.096 179.833C331.914 179.833 329.976 180.289 328.283 181.201C326.589 182.113 325.27 183.399 324.326 185.06C323.381 186.721 322.909 188.626 322.909 190.776C322.909 192.893 323.381 194.782 324.326 196.442C325.27 198.103 326.573 199.406 328.234 200.35C329.927 201.262 331.849 201.718 333.998 201.718C336.278 201.718 338.329 201.23 340.153 200.253V190.238Z" fill="white"/>
<path d="M119.19 224.13H115.367V223.136H124.164V224.13H120.34V234.016H119.19V224.13ZM132.279 231.109H126.217L124.911 234.016H123.714L128.688 223.136H129.823L134.797 234.016H133.584L132.279 231.109ZM131.859 230.177L129.248 224.333L126.636 230.177H131.859ZM144.108 228.576H145.211V232.726C144.703 233.171 144.102 233.513 143.408 233.752C142.714 233.99 141.983 234.109 141.216 234.109C140.128 234.109 139.149 233.871 138.279 233.394C137.408 232.918 136.724 232.26 136.227 231.42C135.73 230.571 135.481 229.622 135.481 228.576C135.481 227.529 135.73 226.586 136.227 225.747C136.724 224.897 137.408 224.234 138.279 223.757C139.149 223.281 140.134 223.042 141.232 223.042C142.061 223.042 142.823 223.177 143.517 223.447C144.211 223.706 144.797 224.094 145.273 224.612L144.558 225.343C143.698 224.493 142.605 224.068 141.279 224.068C140.398 224.068 139.6 224.265 138.885 224.659C138.18 225.042 137.626 225.581 137.222 226.275C136.818 226.959 136.616 227.726 136.616 228.576C136.616 229.426 136.818 230.192 137.222 230.876C137.626 231.56 138.18 232.099 138.885 232.493C139.59 232.887 140.382 233.083 141.263 233.083C142.382 233.083 143.33 232.804 144.108 232.244V228.576ZM148.466 223.136H149.617V233.021H155.71V234.016H148.466V223.136ZM157.619 223.136H158.77V234.016H157.619V223.136ZM171.402 223.136V234.016H170.454L163.46 225.187V234.016H162.31V223.136H163.258L170.268 231.964V223.136H171.402ZM182.648 233.021V234.016H174.954V223.136H182.414V224.13H176.104V228.001H181.731V228.98H176.104V233.021H182.648ZM194.444 223.136V234.016H193.309V228.996H186.501V234.016H185.351V223.136H186.501V227.985H193.309V223.136H194.444ZM205.689 233.021V234.016H197.995V223.136H205.456V224.13H199.146V228.001H204.772V228.98H199.146V233.021H205.689ZM215.823 234.016L213.336 230.519C213.056 230.55 212.766 230.565 212.465 230.565H209.543V234.016H208.393V223.136H212.465C213.854 223.136 214.942 223.467 215.729 224.13C216.517 224.794 216.911 225.706 216.911 226.866C216.911 227.716 216.693 228.436 216.258 229.027C215.833 229.607 215.222 230.027 214.424 230.286L217.082 234.016H215.823ZM212.434 229.586C213.512 229.586 214.336 229.348 214.906 228.871C215.475 228.395 215.76 227.726 215.76 226.866C215.76 225.985 215.475 225.312 214.906 224.845C214.336 224.369 213.512 224.13 212.434 224.13H209.543V229.586H212.434ZM227.319 233.021V234.016H219.625V223.136H227.086V224.13H220.776V228.001H226.402V228.98H220.776V233.021H227.319Z" fill="white"/>
<path fill-rule="evenodd" clip-rule="evenodd" d="M108.235 89.8508C106.365 83.5417 105.362 76.8604 105.362 69.9446C105.362 31.3153 136.677 0 175.306 0C199.557 0 220.925 12.3416 233.473 31.0865H203.013L211.031 45.7935L171.194 69.5262L165.902 62.1957C163.313 58.5991 158.365 57.6599 154.631 60.0653L108.235 89.8508Z" fill="white"/>
<path fill-rule="evenodd" clip-rule="evenodd" d="M125.346 92.7451L112.576 100.918C115.872 107.58 120.198 113.642 125.346 118.896V92.7451ZM134.228 126.562V87.0607L145.33 79.9553V133.158C141.415 131.299 137.701 129.086 134.228 126.562ZM154.212 74.2709V136.652C157.797 137.785 161.506 138.636 165.314 139.181V80.2802L158.869 71.2903L154.212 74.2709ZM174.196 139.881V81.6549L185.298 74.9973V139.181C182.035 139.648 178.699 139.889 175.307 139.889C174.936 139.889 174.566 139.886 174.196 139.881ZM194.18 69.6713V137.313C198.025 136.238 201.736 134.843 205.283 133.158V63.0137L194.18 69.6713ZM214.164 128.111V57.6876L225.267 51.03V118.896C221.898 122.333 218.178 125.424 214.164 128.111ZM234.149 45.704V107.774C241.175 96.8677 245.251 83.8822 245.251 69.9446C245.251 60.1717 243.247 50.867 239.627 42.4189L234.149 45.704Z" fill="white"/>
</svg>
